<mxfile host="app.diagrams.net" modified="2023-11-29T04:58:42.067Z" agent="Mozilla/5.0 (Windows NT 10.0; Win64; x64) AppleWebKit/537.36 (KHTML, like Gecko) Chrome/119.0.0.0 Safari/537.36" etag="izkndddgT_RrfJDrFUAA" version="22.1.4" type="google">
  <diagram name="Page-1" id="_QlV2U3ekHrMA1H4ESMR">
    <mxGraphModel grid="1" page="1" gridSize="10" guides="1" tooltips="1" connect="1" arrows="1" fold="1" pageScale="1" pageWidth="850" pageHeight="1100" math="0" shadow="0">
      <root>
        <mxCell id="0" />
        <mxCell id="1" parent="0" />
        <mxCell id="dhdOp_cYtf0jY4P4dVEB-1" value="COSMOPOLITAN CITIZENSHIP " style="ellipse;whiteSpace=wrap;html=1;" vertex="1" parent="1">
          <mxGeometry x="360" y="380" width="120" height="80" as="geometry" />
        </mxCell>
        <mxCell id="dhdOp_cYtf0jY4P4dVEB-2" value="&lt;div&gt;&amp;nbsp;Critics of Cosmopolitan&amp;nbsp;&lt;/div&gt;Citizenship" style="rounded=1;whiteSpace=wrap;html=1;" vertex="1" parent="1">
          <mxGeometry x="470" y="310" width="140" height="40" as="geometry" />
        </mxCell>
        <mxCell id="dhdOp_cYtf0jY4P4dVEB-3" value="Sphere of Cosmopolitan Duty" style="rounded=1;whiteSpace=wrap;html=1;" vertex="1" parent="1">
          <mxGeometry x="380" y="490" width="120" height="60" as="geometry" />
        </mxCell>
        <mxCell id="dhdOp_cYtf0jY4P4dVEB-4" value="Divorced from Representation :&amp;nbsp;&amp;nbsp;cosmopolitan citizenship is disconnected from having official representation" style="rounded=1;whiteSpace=wrap;html=1;" vertex="1" parent="1">
          <mxGeometry x="650" y="380" width="190" height="80" as="geometry" />
        </mxCell>
        <mxCell id="dhdOp_cYtf0jY4P4dVEB-5" value="No Political Participation:&amp;nbsp;cosmopolitan citizenship lacks active involvement in political matters." style="rounded=1;whiteSpace=wrap;html=1;" vertex="1" parent="1">
          <mxGeometry x="650" y="310" width="210" height="60" as="geometry" />
        </mxCell>
        <mxCell id="dhdOp_cYtf0jY4P4dVEB-6" value="Limited without State: A person can&#39;t be a global citizen if he doesn&#39;t have a specific country to identify with." style="rounded=1;whiteSpace=wrap;html=1;" vertex="1" parent="1">
          <mxGeometry x="650" y="230" width="200" height="65" as="geometry" />
        </mxCell>
        <mxCell id="z--xn2a8JjSUEMAzXs9b-1" value="Sphere of Cosmopolitan Rights" style="rounded=1;whiteSpace=wrap;html=1;" vertex="1" parent="1">
          <mxGeometry x="190" y="410" width="120" height="40" as="geometry" />
        </mxCell>
        <mxCell id="z--xn2a8JjSUEMAzXs9b-2" value="Responsibility to Outsiders:&amp;nbsp;duty towards people who are not part of one&#39;s immediate community." style="rounded=1;whiteSpace=wrap;html=1;" vertex="1" parent="1">
          <mxGeometry x="320" y="590" width="180" height="70" as="geometry" />
        </mxCell>
        <mxCell id="z--xn2a8JjSUEMAzXs9b-3" value="Global Ethic :&amp;nbsp;&amp;nbsp;adopting universal moral principles&amp;nbsp;" style="rounded=1;whiteSpace=wrap;html=1;" vertex="1" parent="1">
          <mxGeometry x="550" y="580" width="120" height="60" as="geometry" />
        </mxCell>
        <mxCell id="z--xn2a8JjSUEMAzXs9b-4" value="Moral Commitments:&amp;nbsp;having a sense of duty&amp;nbsp; based on ethical principles" style="rounded=1;whiteSpace=wrap;html=1;" vertex="1" parent="1">
          <mxGeometry x="540" y="500" width="180" height="60" as="geometry" />
        </mxCell>
        <mxCell id="z--xn2a8JjSUEMAzXs9b-6" value="International Law: Agreements between countries to prevent conflicts" style="rounded=1;whiteSpace=wrap;html=1;" vertex="1" parent="1">
          <mxGeometry x="10" y="510" width="120" height="60" as="geometry" />
        </mxCell>
        <mxCell id="z--xn2a8JjSUEMAzXs9b-7" value="&lt;div&gt;Universal Declaration of&lt;span style=&quot;background-color: initial;&quot;&gt;&amp;nbsp;Human Rights: fundamental rights of all human&lt;/span&gt;&lt;/div&gt;" style="rounded=1;whiteSpace=wrap;html=1;" vertex="1" parent="1">
          <mxGeometry x="192.5" y="510" width="120" height="60" as="geometry" />
        </mxCell>
        <mxCell id="z--xn2a8JjSUEMAzXs9b-8" value="Nuremberg Conventions: :&amp;nbsp;military personnel&#39;s&amp;nbsp; right&amp;nbsp; to disobey orders involving committing crimes against humanity." style="rounded=1;whiteSpace=wrap;html=1;" vertex="1" parent="1">
          <mxGeometry y="370" width="160" height="80" as="geometry" />
        </mxCell>
        <mxCell id="z--xn2a8JjSUEMAzXs9b-12" value="&amp;nbsp;Sphere of Cosmopolitan Democracy&amp;nbsp;" style="rounded=1;whiteSpace=wrap;html=1;" vertex="1" parent="1">
          <mxGeometry x="290" y="295" width="140" height="40" as="geometry" />
        </mxCell>
        <mxCell id="z--xn2a8JjSUEMAzXs9b-13" value="&lt;div&gt;Democratization of Global Political&lt;span style=&quot;background-color: initial;&quot;&gt;&amp;nbsp;Institutions:&amp;nbsp;&lt;/span&gt;&lt;/div&gt;Global organizations made democratic by giving people a say in decisions." style="rounded=1;whiteSpace=wrap;html=1;" vertex="1" parent="1">
          <mxGeometry x="312.5" y="190" width="255" height="60" as="geometry" />
        </mxCell>
        <mxCell id="z--xn2a8JjSUEMAzXs9b-14" value="&amp;nbsp;INGOs and Global Politics:&amp;nbsp;&amp;nbsp;Non-Governmental Organizations influencing politics" style="rounded=1;whiteSpace=wrap;html=1;" vertex="1" parent="1">
          <mxGeometry x="100" y="190" width="200" height="60" as="geometry" />
        </mxCell>
        <mxCell id="z--xn2a8JjSUEMAzXs9b-15" value="Global Ethic in Democracy: Applying moral principles globally" style="rounded=1;whiteSpace=wrap;html=1;" vertex="1" parent="1">
          <mxGeometry x="90" y="270" width="140" height="60" as="geometry" />
        </mxCell>
        <mxCell id="z--xn2a8JjSUEMAzXs9b-24" value="" style="endArrow=none;html=1;rounded=0;" edge="1" parent="1">
          <mxGeometry width="50" height="50" relative="1" as="geometry">
            <mxPoint x="470" y="400" as="sourcePoint" />
            <mxPoint x="520" y="350" as="targetPoint" />
          </mxGeometry>
        </mxCell>
        <mxCell id="z--xn2a8JjSUEMAzXs9b-25" value="" style="endArrow=none;html=1;rounded=0;exitX=1;exitY=0.5;exitDx=0;exitDy=0;" edge="1" parent="1" source="z--xn2a8JjSUEMAzXs9b-1">
          <mxGeometry width="50" height="50" relative="1" as="geometry">
            <mxPoint x="310" y="470" as="sourcePoint" />
            <mxPoint x="360" y="420" as="targetPoint" />
          </mxGeometry>
        </mxCell>
        <mxCell id="z--xn2a8JjSUEMAzXs9b-26" value="" style="endArrow=none;html=1;rounded=0;" edge="1" parent="1" source="dhdOp_cYtf0jY4P4dVEB-3">
          <mxGeometry width="50" height="50" relative="1" as="geometry">
            <mxPoint x="390" y="510" as="sourcePoint" />
            <mxPoint x="440" y="460" as="targetPoint" />
          </mxGeometry>
        </mxCell>
        <mxCell id="z--xn2a8JjSUEMAzXs9b-27" value="" style="endArrow=none;html=1;rounded=0;entryX=0.667;entryY=1.017;entryDx=0;entryDy=0;entryPerimeter=0;" edge="1" parent="1" target="z--xn2a8JjSUEMAzXs9b-12">
          <mxGeometry width="50" height="50" relative="1" as="geometry">
            <mxPoint x="400" y="380" as="sourcePoint" />
            <mxPoint x="450" y="330" as="targetPoint" />
          </mxGeometry>
        </mxCell>
        <mxCell id="z--xn2a8JjSUEMAzXs9b-28" value="" style="endArrow=none;html=1;rounded=0;exitX=0.75;exitY=0;exitDx=0;exitDy=0;" edge="1" parent="1" source="z--xn2a8JjSUEMAzXs9b-12">
          <mxGeometry width="50" height="50" relative="1" as="geometry">
            <mxPoint x="420" y="300" as="sourcePoint" />
            <mxPoint x="470" y="250" as="targetPoint" />
          </mxGeometry>
        </mxCell>
        <mxCell id="z--xn2a8JjSUEMAzXs9b-29" value="" style="endArrow=none;html=1;rounded=0;exitX=0.75;exitY=0;exitDx=0;exitDy=0;" edge="1" parent="1">
          <mxGeometry width="50" height="50" relative="1" as="geometry">
            <mxPoint x="575" y="310" as="sourcePoint" />
            <mxPoint x="650" y="265" as="targetPoint" />
          </mxGeometry>
        </mxCell>
        <mxCell id="z--xn2a8JjSUEMAzXs9b-30" value="" style="endArrow=none;html=1;rounded=0;exitX=0.75;exitY=1;exitDx=0;exitDy=0;" edge="1" parent="1" source="dhdOp_cYtf0jY4P4dVEB-2">
          <mxGeometry width="50" height="50" relative="1" as="geometry">
            <mxPoint x="575" y="450" as="sourcePoint" />
            <mxPoint x="650" y="405" as="targetPoint" />
          </mxGeometry>
        </mxCell>
        <mxCell id="z--xn2a8JjSUEMAzXs9b-31" value="" style="endArrow=none;html=1;rounded=0;exitX=1;exitY=0.5;exitDx=0;exitDy=0;" edge="1" parent="1" source="dhdOp_cYtf0jY4P4dVEB-2">
          <mxGeometry width="50" height="50" relative="1" as="geometry">
            <mxPoint x="575" y="380" as="sourcePoint" />
            <mxPoint x="650" y="335" as="targetPoint" />
          </mxGeometry>
        </mxCell>
        <mxCell id="z--xn2a8JjSUEMAzXs9b-32" value="" style="endArrow=none;html=1;rounded=0;exitX=0.461;exitY=0.014;exitDx=0;exitDy=0;exitPerimeter=0;" edge="1" parent="1" source="z--xn2a8JjSUEMAzXs9b-2">
          <mxGeometry width="50" height="50" relative="1" as="geometry">
            <mxPoint x="360" y="595" as="sourcePoint" />
            <mxPoint x="435" y="550" as="targetPoint" />
          </mxGeometry>
        </mxCell>
        <mxCell id="z--xn2a8JjSUEMAzXs9b-33" value="" style="endArrow=none;html=1;rounded=0;exitX=0.75;exitY=1;exitDx=0;exitDy=0;entryX=0;entryY=0.5;entryDx=0;entryDy=0;" edge="1" parent="1" source="dhdOp_cYtf0jY4P4dVEB-3" target="z--xn2a8JjSUEMAzXs9b-3">
          <mxGeometry width="50" height="50" relative="1" as="geometry">
            <mxPoint x="502.5" y="525" as="sourcePoint" />
            <mxPoint x="577.5" y="480" as="targetPoint" />
          </mxGeometry>
        </mxCell>
        <mxCell id="z--xn2a8JjSUEMAzXs9b-34" value="" style="endArrow=none;html=1;rounded=0;exitX=0.75;exitY=0;exitDx=0;exitDy=0;entryX=0;entryY=0.5;entryDx=0;entryDy=0;" edge="1" parent="1" target="z--xn2a8JjSUEMAzXs9b-4">
          <mxGeometry width="50" height="50" relative="1" as="geometry">
            <mxPoint x="500" y="515" as="sourcePoint" />
            <mxPoint x="575" y="470" as="targetPoint" />
          </mxGeometry>
        </mxCell>
        <mxCell id="z--xn2a8JjSUEMAzXs9b-35" value="" style="endArrow=none;html=1;rounded=0;exitX=0.596;exitY=0.05;exitDx=0;exitDy=0;exitPerimeter=0;" edge="1" parent="1" source="z--xn2a8JjSUEMAzXs9b-7">
          <mxGeometry width="50" height="50" relative="1" as="geometry">
            <mxPoint x="190" y="495" as="sourcePoint" />
            <mxPoint x="265" y="450" as="targetPoint" />
          </mxGeometry>
        </mxCell>
        <mxCell id="z--xn2a8JjSUEMAzXs9b-36" value="" style="endArrow=none;html=1;rounded=0;exitX=0.75;exitY=0;exitDx=0;exitDy=0;entryX=0.25;entryY=1.175;entryDx=0;entryDy=0;entryPerimeter=0;" edge="1" parent="1" target="z--xn2a8JjSUEMAzXs9b-1">
          <mxGeometry width="50" height="50" relative="1" as="geometry">
            <mxPoint x="130" y="515" as="sourcePoint" />
            <mxPoint x="205" y="470" as="targetPoint" />
          </mxGeometry>
        </mxCell>
        <mxCell id="z--xn2a8JjSUEMAzXs9b-37" value="" style="endArrow=none;html=1;rounded=0;exitX=1;exitY=0.5;exitDx=0;exitDy=0;entryX=0;entryY=0.25;entryDx=0;entryDy=0;" edge="1" parent="1" source="z--xn2a8JjSUEMAzXs9b-8" target="z--xn2a8JjSUEMAzXs9b-1">
          <mxGeometry width="50" height="50" relative="1" as="geometry">
            <mxPoint x="160" y="425" as="sourcePoint" />
            <mxPoint x="235" y="380" as="targetPoint" />
          </mxGeometry>
        </mxCell>
        <mxCell id="z--xn2a8JjSUEMAzXs9b-38" value="" style="endArrow=none;html=1;rounded=0;exitX=0.75;exitY=0;exitDx=0;exitDy=0;entryX=0;entryY=0.5;entryDx=0;entryDy=0;" edge="1" parent="1" target="z--xn2a8JjSUEMAzXs9b-12">
          <mxGeometry width="50" height="50" relative="1" as="geometry">
            <mxPoint x="230" y="322.5" as="sourcePoint" />
            <mxPoint x="305" y="277.5" as="targetPoint" />
          </mxGeometry>
        </mxCell>
        <mxCell id="z--xn2a8JjSUEMAzXs9b-39" value="" style="endArrow=none;html=1;rounded=0;exitX=0.75;exitY=0;exitDx=0;exitDy=0;entryX=0.143;entryY=0.025;entryDx=0;entryDy=0;entryPerimeter=0;" edge="1" parent="1" target="z--xn2a8JjSUEMAzXs9b-12">
          <mxGeometry width="50" height="50" relative="1" as="geometry">
            <mxPoint x="260" y="250" as="sourcePoint" />
            <mxPoint x="335" y="205" as="targetPoint" />
          </mxGeometry>
        </mxCell>
      </root>
    </mxGraphModel>
  </diagram>
</mxfile>
